<mxfile host="Electron" modified="2023-08-22T16:34:45.816Z" agent="Mozilla/5.0 (Windows NT 10.0; Win64; x64) AppleWebKit/537.36 (KHTML, like Gecko) draw.io/21.6.1 Chrome/112.0.5615.204 Electron/24.6.1 Safari/537.36" etag="IcTDHu1C-PCfL_BaZfrj" version="21.6.1" type="device">
  <diagram id="C5RBs43oDa-KdzZeNtuy" name="Page-1">
    <mxGraphModel dx="2026" dy="1171" grid="1" gridSize="10" guides="1" tooltips="1" connect="1" arrows="1" fold="1" page="1" pageScale="1" pageWidth="1169" pageHeight="827" math="0" shadow="0">
      <root>
        <mxCell id="WIyWlLk6GJQsqaUBKTNV-0" />
        <mxCell id="WIyWlLk6GJQsqaUBKTNV-1" parent="WIyWlLk6GJQsqaUBKTNV-0" />
        <mxCell id="WIyWlLk6GJQsqaUBKTNV-3" value="ONNX모델을 ONNX런타임으로 로드" style="rounded=1;whiteSpace=wrap;html=1;fontSize=16;glass=0;strokeWidth=1;shadow=0;" parent="WIyWlLk6GJQsqaUBKTNV-1" vertex="1">
          <mxGeometry x="67.5" y="20" width="265" height="40" as="geometry" />
        </mxCell>
        <mxCell id="S4gW_ihQcJ0_Ss8A9_ka-0" value="웹캠을 열고 프레임을 가져온다" style="rounded=1;whiteSpace=wrap;html=1;fontSize=16;glass=0;strokeWidth=1;shadow=0;" parent="WIyWlLk6GJQsqaUBKTNV-1" vertex="1">
          <mxGeometry x="62.5" y="260" width="245" height="40" as="geometry" />
        </mxCell>
        <mxCell id="xyTl4LSc6oClZwjzZs2d-6" value="" style="edgeStyle=orthogonalEdgeStyle;rounded=0;orthogonalLoop=1;jettySize=auto;html=1;" edge="1" parent="WIyWlLk6GJQsqaUBKTNV-1" source="S4gW_ihQcJ0_Ss8A9_ka-2" target="S4gW_ihQcJ0_Ss8A9_ka-3">
          <mxGeometry relative="1" as="geometry" />
        </mxCell>
        <mxCell id="S4gW_ihQcJ0_Ss8A9_ka-2" value="GPU가 사용가능한가?" style="rhombus;whiteSpace=wrap;html=1;fontSize=16;" parent="WIyWlLk6GJQsqaUBKTNV-1" vertex="1">
          <mxGeometry x="70" y="80" width="230" height="80" as="geometry" />
        </mxCell>
        <mxCell id="S4gW_ihQcJ0_Ss8A9_ka-3" value="모델을 GPU로 로드" style="rounded=1;whiteSpace=wrap;html=1;fontSize=16;" parent="WIyWlLk6GJQsqaUBKTNV-1" vertex="1">
          <mxGeometry x="58.75" y="185" width="252.5" height="50" as="geometry" />
        </mxCell>
        <mxCell id="S4gW_ihQcJ0_Ss8A9_ka-4" value="모델을 CPU로 로드" style="rounded=1;whiteSpace=wrap;html=1;fontSize=16;" parent="WIyWlLk6GJQsqaUBKTNV-1" vertex="1">
          <mxGeometry x="332.5" y="90" width="167" height="60" as="geometry" />
        </mxCell>
        <mxCell id="S4gW_ihQcJ0_Ss8A9_ka-5" value="프레임의 밝기 조절" style="rounded=1;whiteSpace=wrap;html=1;fontSize=16;" parent="WIyWlLk6GJQsqaUBKTNV-1" vertex="1">
          <mxGeometry x="62.5" y="330" width="245" height="40" as="geometry" />
        </mxCell>
        <mxCell id="S4gW_ihQcJ0_Ss8A9_ka-6" value="프레임을 흑백으로 변환" style="rounded=1;whiteSpace=wrap;html=1;fontSize=16;" parent="WIyWlLk6GJQsqaUBKTNV-1" vertex="1">
          <mxGeometry x="75" y="400" width="220" height="60" as="geometry" />
        </mxCell>
        <mxCell id="S4gW_ihQcJ0_Ss8A9_ka-7" value="프레임을 이진화한다" style="rounded=1;whiteSpace=wrap;html=1;fontSize=16;" parent="WIyWlLk6GJQsqaUBKTNV-1" vertex="1">
          <mxGeometry x="75" y="494.5" width="220" height="60" as="geometry" />
        </mxCell>
        <mxCell id="S4gW_ihQcJ0_Ss8A9_ka-8" value="침식과 팽창연산으로 노이즈를 제거" style="rounded=1;whiteSpace=wrap;html=1;fontSize=16;" parent="WIyWlLk6GJQsqaUBKTNV-1" vertex="1">
          <mxGeometry x="75" y="580" width="220" height="60" as="geometry" />
        </mxCell>
        <mxCell id="S4gW_ihQcJ0_Ss8A9_ka-9" value="원본프레임을 복사한다" style="rounded=1;whiteSpace=wrap;html=1;fontSize=16;" parent="WIyWlLk6GJQsqaUBKTNV-1" vertex="1">
          <mxGeometry x="75" y="670" width="220" height="60" as="geometry" />
        </mxCell>
        <mxCell id="S4gW_ihQcJ0_Ss8A9_ka-10" value="노이즈가 제거된 이진화 프레임에&lt;br style=&quot;font-size: 15px;&quot;&gt;컨투어를 찾는다" style="rounded=1;whiteSpace=wrap;html=1;fontSize=15;" parent="WIyWlLk6GJQsqaUBKTNV-1" vertex="1">
          <mxGeometry x="448.75" y="185" width="257.5" height="60" as="geometry" />
        </mxCell>
        <mxCell id="S4gW_ihQcJ0_Ss8A9_ka-11" value="컨투어를 복사한 원본프레임에 그린다" style="rounded=1;whiteSpace=wrap;html=1;fontSize=16;" parent="WIyWlLk6GJQsqaUBKTNV-1" vertex="1">
          <mxGeometry x="432.5" y="400" width="285" height="60" as="geometry" />
        </mxCell>
        <mxCell id="S4gW_ihQcJ0_Ss8A9_ka-13" value="유의미한 크기의 컨투어라면?" style="rhombus;whiteSpace=wrap;html=1;fontSize=16;" parent="WIyWlLk6GJQsqaUBKTNV-1" vertex="1">
          <mxGeometry x="437.5" y="285" width="280" height="80" as="geometry" />
        </mxCell>
        <mxCell id="S4gW_ihQcJ0_Ss8A9_ka-14" value="컨투어에 그린 바운딩박스내의 &lt;br style=&quot;font-size: 16px;&quot;&gt;이미지를 잘라낸다" style="rounded=1;whiteSpace=wrap;html=1;fontSize=16;" parent="WIyWlLk6GJQsqaUBKTNV-1" vertex="1">
          <mxGeometry x="446.25" y="507.5" width="262.5" height="45" as="geometry" />
        </mxCell>
        <mxCell id="S4gW_ihQcJ0_Ss8A9_ka-15" value="잘라낸 이미지전부를 AI모델이 받아들일수있는&amp;nbsp;&lt;br style=&quot;font-size: 16px;&quot;&gt;형식으로 리사이즈한다" style="rounded=1;whiteSpace=wrap;html=1;fontSize=16;" parent="WIyWlLk6GJQsqaUBKTNV-1" vertex="1">
          <mxGeometry x="380" y="620" width="395" height="60" as="geometry" />
        </mxCell>
        <mxCell id="S4gW_ihQcJ0_Ss8A9_ka-16" value="AI가 추론을 실행하고 클래스별 확률을 계산한다" style="rounded=1;whiteSpace=wrap;html=1;fontSize=16;" parent="WIyWlLk6GJQsqaUBKTNV-1" vertex="1">
          <mxGeometry x="862.5" y="50" width="280" height="60" as="geometry" />
        </mxCell>
        <mxCell id="S4gW_ihQcJ0_Ss8A9_ka-17" value="결과 프레임을 큐에넣는다&lt;br style=&quot;font-size: 16px;&quot;&gt;(쓰레드로 웹으로 이미지가 전송된다)" style="rounded=1;whiteSpace=wrap;html=1;fontSize=16;" parent="WIyWlLk6GJQsqaUBKTNV-1" vertex="1">
          <mxGeometry x="857.5" y="150" width="305" height="60" as="geometry" />
        </mxCell>
        <mxCell id="S4gW_ihQcJ0_Ss8A9_ka-19" value="중복약제가 있는지 검사한다" style="rounded=1;whiteSpace=wrap;html=1;fontSize=16;" parent="WIyWlLk6GJQsqaUBKTNV-1" vertex="1">
          <mxGeometry x="880" y="260" width="260" height="60" as="geometry" />
        </mxCell>
        <mxCell id="S4gW_ihQcJ0_Ss8A9_ka-20" value="만약 중복약제가없으면?" style="rhombus;whiteSpace=wrap;html=1;fontSize=16;" parent="WIyWlLk6GJQsqaUBKTNV-1" vertex="1">
          <mxGeometry x="875" y="374" width="270" height="80" as="geometry" />
        </mxCell>
        <mxCell id="S4gW_ihQcJ0_Ss8A9_ka-21" value="약을 먹어도된다고 지도한다" style="rounded=1;whiteSpace=wrap;html=1;fontSize=16;" parent="WIyWlLk6GJQsqaUBKTNV-1" vertex="1">
          <mxGeometry x="885" y="500" width="250" height="60" as="geometry" />
        </mxCell>
        <mxCell id="S4gW_ihQcJ0_Ss8A9_ka-22" value="약을 먹지않도록 지도" style="rounded=1;whiteSpace=wrap;html=1;fontSize=16;" parent="WIyWlLk6GJQsqaUBKTNV-1" vertex="1">
          <mxGeometry x="725" y="384" width="137.5" height="60" as="geometry" />
        </mxCell>
        <mxCell id="S4gW_ihQcJ0_Ss8A9_ka-23" value="약에 관련된 정보를 DB에서 가져와 출력한다" style="rounded=1;whiteSpace=wrap;html=1;fontSize=16;" parent="WIyWlLk6GJQsqaUBKTNV-1" vertex="1">
          <mxGeometry x="882.5" y="610" width="255" height="60" as="geometry" />
        </mxCell>
        <mxCell id="xyTl4LSc6oClZwjzZs2d-0" value="q를 누르면 프로그램 종료" style="rounded=1;whiteSpace=wrap;html=1;fontSize=16;" vertex="1" parent="WIyWlLk6GJQsqaUBKTNV-1">
          <mxGeometry x="882.5" y="720" width="255" height="60" as="geometry" />
        </mxCell>
        <mxCell id="xyTl4LSc6oClZwjzZs2d-1" value="" style="endArrow=classic;html=1;rounded=0;exitX=0.44;exitY=0.975;exitDx=0;exitDy=0;exitPerimeter=0;entryX=0.5;entryY=0;entryDx=0;entryDy=0;" edge="1" parent="WIyWlLk6GJQsqaUBKTNV-1" source="WIyWlLk6GJQsqaUBKTNV-3" target="S4gW_ihQcJ0_Ss8A9_ka-2">
          <mxGeometry width="50" height="50" relative="1" as="geometry">
            <mxPoint x="470" y="500" as="sourcePoint" />
            <mxPoint x="520" y="450" as="targetPoint" />
          </mxGeometry>
        </mxCell>
        <mxCell id="xyTl4LSc6oClZwjzZs2d-3" value="" style="endArrow=classic;html=1;rounded=0;exitX=1;exitY=0.5;exitDx=0;exitDy=0;" edge="1" parent="WIyWlLk6GJQsqaUBKTNV-1" source="S4gW_ihQcJ0_Ss8A9_ka-2">
          <mxGeometry width="50" height="50" relative="1" as="geometry">
            <mxPoint x="470" y="500" as="sourcePoint" />
            <mxPoint x="330" y="120" as="targetPoint" />
          </mxGeometry>
        </mxCell>
        <mxCell id="xyTl4LSc6oClZwjzZs2d-4" value="" style="endArrow=classic;html=1;rounded=0;exitX=0.5;exitY=1;exitDx=0;exitDy=0;entryX=1;entryY=0.5;entryDx=0;entryDy=0;" edge="1" parent="WIyWlLk6GJQsqaUBKTNV-1" source="S4gW_ihQcJ0_Ss8A9_ka-4" target="S4gW_ihQcJ0_Ss8A9_ka-0">
          <mxGeometry width="50" height="50" relative="1" as="geometry">
            <mxPoint x="470" y="500" as="sourcePoint" />
            <mxPoint x="520" y="450" as="targetPoint" />
            <Array as="points">
              <mxPoint x="416" y="280" />
            </Array>
          </mxGeometry>
        </mxCell>
        <mxCell id="xyTl4LSc6oClZwjzZs2d-9" value="" style="endArrow=classic;html=1;rounded=0;exitX=0.5;exitY=1;exitDx=0;exitDy=0;entryX=0.5;entryY=0;entryDx=0;entryDy=0;" edge="1" parent="WIyWlLk6GJQsqaUBKTNV-1" source="S4gW_ihQcJ0_Ss8A9_ka-3" target="S4gW_ihQcJ0_Ss8A9_ka-0">
          <mxGeometry width="50" height="50" relative="1" as="geometry">
            <mxPoint x="340" y="300" as="sourcePoint" />
            <mxPoint x="390" y="250" as="targetPoint" />
          </mxGeometry>
        </mxCell>
        <mxCell id="xyTl4LSc6oClZwjzZs2d-10" value="" style="endArrow=classic;html=1;rounded=0;exitX=0.5;exitY=1;exitDx=0;exitDy=0;entryX=0.5;entryY=0;entryDx=0;entryDy=0;" edge="1" parent="WIyWlLk6GJQsqaUBKTNV-1" source="S4gW_ihQcJ0_Ss8A9_ka-0" target="S4gW_ihQcJ0_Ss8A9_ka-5">
          <mxGeometry width="50" height="50" relative="1" as="geometry">
            <mxPoint x="340" y="410" as="sourcePoint" />
            <mxPoint x="390" y="360" as="targetPoint" />
          </mxGeometry>
        </mxCell>
        <mxCell id="xyTl4LSc6oClZwjzZs2d-11" value="" style="endArrow=classic;html=1;rounded=0;exitX=0.5;exitY=1;exitDx=0;exitDy=0;" edge="1" parent="WIyWlLk6GJQsqaUBKTNV-1" source="S4gW_ihQcJ0_Ss8A9_ka-5" target="S4gW_ihQcJ0_Ss8A9_ka-6">
          <mxGeometry width="50" height="50" relative="1" as="geometry">
            <mxPoint x="340" y="520" as="sourcePoint" />
            <mxPoint x="390" y="470" as="targetPoint" />
          </mxGeometry>
        </mxCell>
        <mxCell id="xyTl4LSc6oClZwjzZs2d-12" value="" style="endArrow=classic;html=1;rounded=0;exitX=0.5;exitY=1;exitDx=0;exitDy=0;entryX=0.5;entryY=0;entryDx=0;entryDy=0;" edge="1" parent="WIyWlLk6GJQsqaUBKTNV-1" source="S4gW_ihQcJ0_Ss8A9_ka-6" target="S4gW_ihQcJ0_Ss8A9_ka-7">
          <mxGeometry width="50" height="50" relative="1" as="geometry">
            <mxPoint x="340" y="520" as="sourcePoint" />
            <mxPoint x="390" y="470" as="targetPoint" />
          </mxGeometry>
        </mxCell>
        <mxCell id="xyTl4LSc6oClZwjzZs2d-13" value="" style="endArrow=classic;html=1;rounded=0;exitX=0.5;exitY=1;exitDx=0;exitDy=0;" edge="1" parent="WIyWlLk6GJQsqaUBKTNV-1" source="S4gW_ihQcJ0_Ss8A9_ka-7" target="S4gW_ihQcJ0_Ss8A9_ka-8">
          <mxGeometry width="50" height="50" relative="1" as="geometry">
            <mxPoint x="340" y="520" as="sourcePoint" />
            <mxPoint x="390" y="470" as="targetPoint" />
          </mxGeometry>
        </mxCell>
        <mxCell id="xyTl4LSc6oClZwjzZs2d-14" value="" style="endArrow=classic;html=1;rounded=0;exitX=0.5;exitY=1;exitDx=0;exitDy=0;" edge="1" parent="WIyWlLk6GJQsqaUBKTNV-1" source="S4gW_ihQcJ0_Ss8A9_ka-8" target="S4gW_ihQcJ0_Ss8A9_ka-9">
          <mxGeometry width="50" height="50" relative="1" as="geometry">
            <mxPoint x="340" y="520" as="sourcePoint" />
            <mxPoint x="390" y="470" as="targetPoint" />
          </mxGeometry>
        </mxCell>
        <mxCell id="xyTl4LSc6oClZwjzZs2d-15" value="" style="endArrow=classic;html=1;rounded=0;exitX=0.473;exitY=1.017;exitDx=0;exitDy=0;exitPerimeter=0;" edge="1" parent="WIyWlLk6GJQsqaUBKTNV-1" source="S4gW_ihQcJ0_Ss8A9_ka-9">
          <mxGeometry width="50" height="50" relative="1" as="geometry">
            <mxPoint x="240" y="830" as="sourcePoint" />
            <mxPoint x="179" y="790" as="targetPoint" />
          </mxGeometry>
        </mxCell>
        <mxCell id="xyTl4LSc6oClZwjzZs2d-16" value="" style="endArrow=classic;html=1;rounded=0;entryX=0.5;entryY=0;entryDx=0;entryDy=0;" edge="1" parent="WIyWlLk6GJQsqaUBKTNV-1" target="S4gW_ihQcJ0_Ss8A9_ka-10">
          <mxGeometry width="50" height="50" relative="1" as="geometry">
            <mxPoint x="578" y="30" as="sourcePoint" />
            <mxPoint x="580" y="180" as="targetPoint" />
          </mxGeometry>
        </mxCell>
        <mxCell id="xyTl4LSc6oClZwjzZs2d-17" value="" style="endArrow=classic;html=1;rounded=0;exitX=0.5;exitY=1;exitDx=0;exitDy=0;entryX=0.5;entryY=0;entryDx=0;entryDy=0;" edge="1" parent="WIyWlLk6GJQsqaUBKTNV-1" source="S4gW_ihQcJ0_Ss8A9_ka-10" target="S4gW_ihQcJ0_Ss8A9_ka-13">
          <mxGeometry width="50" height="50" relative="1" as="geometry">
            <mxPoint x="590" y="280" as="sourcePoint" />
            <mxPoint x="580" y="330" as="targetPoint" />
          </mxGeometry>
        </mxCell>
        <mxCell id="xyTl4LSc6oClZwjzZs2d-18" value="" style="endArrow=classic;html=1;rounded=0;exitX=0.5;exitY=1;exitDx=0;exitDy=0;entryX=0.5;entryY=0;entryDx=0;entryDy=0;" edge="1" parent="WIyWlLk6GJQsqaUBKTNV-1" source="S4gW_ihQcJ0_Ss8A9_ka-13" target="S4gW_ihQcJ0_Ss8A9_ka-11">
          <mxGeometry width="50" height="50" relative="1" as="geometry">
            <mxPoint x="530" y="380" as="sourcePoint" />
            <mxPoint x="580" y="330" as="targetPoint" />
          </mxGeometry>
        </mxCell>
        <mxCell id="xyTl4LSc6oClZwjzZs2d-19" value="" style="endArrow=classic;html=1;rounded=0;exitX=0.5;exitY=1;exitDx=0;exitDy=0;" edge="1" parent="WIyWlLk6GJQsqaUBKTNV-1" source="S4gW_ihQcJ0_Ss8A9_ka-11" target="S4gW_ihQcJ0_Ss8A9_ka-14">
          <mxGeometry width="50" height="50" relative="1" as="geometry">
            <mxPoint x="530" y="480" as="sourcePoint" />
            <mxPoint x="580" y="430" as="targetPoint" />
          </mxGeometry>
        </mxCell>
        <mxCell id="xyTl4LSc6oClZwjzZs2d-20" value="" style="endArrow=classic;html=1;rounded=0;entryX=0.5;entryY=0;entryDx=0;entryDy=0;exitX=0.5;exitY=1;exitDx=0;exitDy=0;" edge="1" parent="WIyWlLk6GJQsqaUBKTNV-1" source="S4gW_ihQcJ0_Ss8A9_ka-14" target="S4gW_ihQcJ0_Ss8A9_ka-15">
          <mxGeometry width="50" height="50" relative="1" as="geometry">
            <mxPoint x="570" y="570" as="sourcePoint" />
            <mxPoint x="580" y="430" as="targetPoint" />
          </mxGeometry>
        </mxCell>
        <mxCell id="xyTl4LSc6oClZwjzZs2d-21" value="" style="endArrow=classic;html=1;rounded=0;exitX=0.5;exitY=1;exitDx=0;exitDy=0;" edge="1" parent="WIyWlLk6GJQsqaUBKTNV-1" source="S4gW_ihQcJ0_Ss8A9_ka-15">
          <mxGeometry width="50" height="50" relative="1" as="geometry">
            <mxPoint x="530" y="680" as="sourcePoint" />
            <mxPoint x="578" y="750" as="targetPoint" />
          </mxGeometry>
        </mxCell>
        <mxCell id="xyTl4LSc6oClZwjzZs2d-22" value="" style="endArrow=classic;html=1;rounded=0;entryX=0.529;entryY=0.017;entryDx=0;entryDy=0;entryPerimeter=0;" edge="1" parent="WIyWlLk6GJQsqaUBKTNV-1" target="S4gW_ihQcJ0_Ss8A9_ka-16">
          <mxGeometry width="50" height="50" relative="1" as="geometry">
            <mxPoint x="1010.5" y="20" as="sourcePoint" />
            <mxPoint x="592.5" y="30" as="targetPoint" />
          </mxGeometry>
        </mxCell>
        <mxCell id="xyTl4LSc6oClZwjzZs2d-23" value="" style="endArrow=classic;html=1;rounded=0;exitX=0.525;exitY=1;exitDx=0;exitDy=0;exitPerimeter=0;" edge="1" parent="WIyWlLk6GJQsqaUBKTNV-1" source="S4gW_ihQcJ0_Ss8A9_ka-16" target="S4gW_ihQcJ0_Ss8A9_ka-17">
          <mxGeometry width="50" height="50" relative="1" as="geometry">
            <mxPoint x="542.5" y="280" as="sourcePoint" />
            <mxPoint x="592.5" y="230" as="targetPoint" />
          </mxGeometry>
        </mxCell>
        <mxCell id="xyTl4LSc6oClZwjzZs2d-24" value="" style="endArrow=classic;html=1;rounded=0;exitX=0.5;exitY=1;exitDx=0;exitDy=0;" edge="1" parent="WIyWlLk6GJQsqaUBKTNV-1" source="S4gW_ihQcJ0_Ss8A9_ka-17" target="S4gW_ihQcJ0_Ss8A9_ka-19">
          <mxGeometry width="50" height="50" relative="1" as="geometry">
            <mxPoint x="542.5" y="280" as="sourcePoint" />
            <mxPoint x="592.5" y="230" as="targetPoint" />
          </mxGeometry>
        </mxCell>
        <mxCell id="xyTl4LSc6oClZwjzZs2d-25" value="" style="endArrow=classic;html=1;rounded=0;exitX=0.5;exitY=1;exitDx=0;exitDy=0;" edge="1" parent="WIyWlLk6GJQsqaUBKTNV-1" source="S4gW_ihQcJ0_Ss8A9_ka-19" target="S4gW_ihQcJ0_Ss8A9_ka-20">
          <mxGeometry width="50" height="50" relative="1" as="geometry">
            <mxPoint x="542.5" y="480" as="sourcePoint" />
            <mxPoint x="592.5" y="430" as="targetPoint" />
          </mxGeometry>
        </mxCell>
        <mxCell id="xyTl4LSc6oClZwjzZs2d-26" value="" style="endArrow=classic;html=1;rounded=0;exitX=0.5;exitY=1;exitDx=0;exitDy=0;" edge="1" parent="WIyWlLk6GJQsqaUBKTNV-1" source="S4gW_ihQcJ0_Ss8A9_ka-20" target="S4gW_ihQcJ0_Ss8A9_ka-21">
          <mxGeometry width="50" height="50" relative="1" as="geometry">
            <mxPoint x="880" y="500" as="sourcePoint" />
            <mxPoint x="930" y="450" as="targetPoint" />
          </mxGeometry>
        </mxCell>
        <mxCell id="xyTl4LSc6oClZwjzZs2d-27" value="" style="endArrow=classic;html=1;rounded=0;exitX=0.5;exitY=1;exitDx=0;exitDy=0;" edge="1" parent="WIyWlLk6GJQsqaUBKTNV-1" source="S4gW_ihQcJ0_Ss8A9_ka-21" target="S4gW_ihQcJ0_Ss8A9_ka-23">
          <mxGeometry width="50" height="50" relative="1" as="geometry">
            <mxPoint x="880" y="500" as="sourcePoint" />
            <mxPoint x="930" y="450" as="targetPoint" />
          </mxGeometry>
        </mxCell>
        <mxCell id="xyTl4LSc6oClZwjzZs2d-28" value="" style="endArrow=classic;html=1;rounded=0;exitX=0.5;exitY=1;exitDx=0;exitDy=0;" edge="1" parent="WIyWlLk6GJQsqaUBKTNV-1" source="S4gW_ihQcJ0_Ss8A9_ka-23" target="xyTl4LSc6oClZwjzZs2d-0">
          <mxGeometry width="50" height="50" relative="1" as="geometry">
            <mxPoint x="880" y="500" as="sourcePoint" />
            <mxPoint x="930" y="450" as="targetPoint" />
          </mxGeometry>
        </mxCell>
        <mxCell id="xyTl4LSc6oClZwjzZs2d-29" value="" style="endArrow=classic;html=1;rounded=0;exitX=0;exitY=0.5;exitDx=0;exitDy=0;entryX=1;entryY=0.5;entryDx=0;entryDy=0;" edge="1" parent="WIyWlLk6GJQsqaUBKTNV-1" source="S4gW_ihQcJ0_Ss8A9_ka-20" target="S4gW_ihQcJ0_Ss8A9_ka-22">
          <mxGeometry width="50" height="50" relative="1" as="geometry">
            <mxPoint x="880" y="500" as="sourcePoint" />
            <mxPoint x="930" y="450" as="targetPoint" />
          </mxGeometry>
        </mxCell>
        <mxCell id="xyTl4LSc6oClZwjzZs2d-31" value="" style="endArrow=classic;html=1;rounded=0;exitX=0.5;exitY=1;exitDx=0;exitDy=0;entryX=0;entryY=0.5;entryDx=0;entryDy=0;" edge="1" parent="WIyWlLk6GJQsqaUBKTNV-1" source="S4gW_ihQcJ0_Ss8A9_ka-22" target="S4gW_ihQcJ0_Ss8A9_ka-21">
          <mxGeometry width="50" height="50" relative="1" as="geometry">
            <mxPoint x="880" y="500" as="sourcePoint" />
            <mxPoint x="930" y="450" as="targetPoint" />
            <Array as="points">
              <mxPoint x="794" y="530" />
            </Array>
          </mxGeometry>
        </mxCell>
      </root>
    </mxGraphModel>
  </diagram>
</mxfile>
